<?xml version="1.0" standalone="no"?>
<!DOCTYPE svg PUBLIC "-//W3C//DTD SVG 20010904//EN"
 "http://www.w3.org/TR/2001/REC-SVG-20010904/DTD/svg10.dtd">
<svg version="1.0" xmlns="http://www.w3.org/2000/svg"
 width="256.000000pt" height="256.000000pt" viewBox="0 0 256.000000 256.000000"
 preserveAspectRatio="xMidYMid meet">
<metadata>
Created by potrace 1.11, written by Peter Selinger 2001-2013
</metadata>
<g transform="translate(0.000000,256.000000) scale(0.100000,-0.100000)"
fill="#000000" stroke="none">
<path d="M1200 1280 l0 -1120 80 0 80 0 0 1120 0 1120 -80 0 -80 0 0 -1120z"/>
<path d="M720 1280 l0 -720 80 0 80 0 0 720 0 720 -80 0 -80 0 0 -720z"/>
<path d="M2160 1280 l0 -720 80 0 80 0 0 720 0 720 -80 0 -80 0 0 -720z"/>
<path d="M240 1280 l0 -400 80 0 80 0 0 400 0 400 -80 0 -80 0 0 -400z"/>
<path d="M1680 1280 l0 -400 80 0 80 0 0 400 0 400 -80 0 -80 0 0 -400z"/>
</g>
</svg>
